# xmcd CD database file
#
# Track frame offsets:
#	150
#	21842
#	38770
#	49886
#	65352
#	85449
#	104410
#	129997
#	151910
#	174966
#	213655
#	250254
#
# Disc length: 3538 seconds
#
# Revision: 0
# Processed by: cddbd v1.4PL0 Copyright (c) Steve Scherf et al.
# Submitted via: CDex 1.40Release
#
DISCID=9e0dd00c
DTITLE=Carl Wyatt and Friends - Living In Exil - Feat. Big Bo McGee, Sharon Lewis, Little Whitt Wells
DYEAR=1900
DGENRE=Blues
TTITLE0=Help Me
TTITLE1=I Love My Baby
TTITLE2=Living In Exile
TTITLE3=Met Her In Luxembourg City
TTITLE4=Can´t Get That Stuff No More
TTITLE5=Mojo Boogie
TTITLE6=Every Day I Have The Blues
TTITLE7=Blues With A Feeling
TTITLE8=Just Like That
TTITLE9=Carla´s Blues
TTITLE10=Sad Memories
TTITLE11=Blues For Jesse
EXTD=ID3G: 0
EXTT0=
EXTT1=
EXTT2=
EXTT3=
EXTT4=
EXTT5=
EXTT6=
EXTT7=
EXTT8=
EXTT9=
EXTT10=
EXTT11=
PLAYORDER=
